<svg width="887" height="886" viewBox="0 0 887 886" fill="none" xmlns="http://www.w3.org/2000/svg">
<circle cx="442.664" cy="442.804" r="404.5" fill="#2295E8" fill-opacity="0.73"/>
<mask id="mask0_102_2" style="mask-type:alpha" maskUnits="userSpaceOnUse" x="38" y="38" width="810" height="810">
<circle cx="442.706" cy="442.846" r="404.502" fill="#2295E8"/>
</mask>
<g mask="url(#mask0_102_2)">
<g style="mix-blend-mode:multiply">
<path d="M473.399 40.1582C448.999 34.736 401.283 61.3051 338.926 61.3051C284.884 54.2562 236.554 76.8128 328.082 112.817C385.016 135.213 348.687 212.044 388.811 212.044C428.936 212.044 424.598 160.509 457.674 156.195C490.75 151.881 497.799 45.5805 473.399 40.1582Z" fill="#66BE0E" fill-opacity="0.9"/>
</g>
<g style="mix-blend-mode:multiply">
<path d="M369.634 595.713C394.034 648.309 285.589 809.351 283.42 821.28L223.775 795.253C229.016 772.66 238.415 721.402 234.077 697.11C228.655 666.745 186.903 681.927 171.179 648.309C155.454 614.691 242.211 562.095 159.25 528.477C76.289 494.859 31.8263 395.631 49.7198 307.248C64.0346 236.541 137.38 166.088 172.263 139.7C203.712 133.554 256.309 141.977 215.099 224.829C173.89 307.682 225.402 280.679 256.309 256.821C294.084 259.713 359.006 279.161 316.496 333.817C263.358 402.138 214.557 431.96 154.37 440.094C80.6268 525.224 345.234 543.117 369.634 595.713Z" fill="#66BE0E" fill-opacity="0.9"/>
</g>
<g style="mix-blend-mode:multiply">
<path d="M683.997 668.955C650.162 770.894 622.906 768.905 613.508 755.169C553.32 744.867 583.685 679.257 588.565 654.857C593.445 630.457 590.192 622.323 546.271 582.741C415.052 536.109 475.24 483.513 482.831 455.317C490.422 427.121 604.29 358.8 630.859 447.184C652.114 517.89 689.6 538.459 705.686 539.905C712.555 540.447 717.832 567.016 683.997 668.955Z" fill="#66BE0E" fill-opacity="0.9"/>
</g>
<g style="mix-blend-mode:multiply">
<path d="M609.774 159.536C655.321 131.774 693.457 129.895 706.832 132.425C860.283 221.35 867.332 492.464 825.038 472.944C782.744 453.424 804.433 405.708 768.646 409.503C732.859 413.299 823.411 459.931 760.513 477.824C697.615 495.718 675.925 375.343 692.192 361.787C705.206 350.943 743.162 350.762 760.513 352.027C760.513 301.709 753.526 355.556 720.388 337.929C687.251 320.302 706.832 337.387 624.956 343.894C480.181 398.117 523.559 342.809 514.342 329.796C505.124 316.782 552.84 194.239 609.774 159.536Z" fill="#66BE0E" fill-opacity="0.9"/>
</g>
</g>
<g style="mix-blend-mode:color-dodge">
<circle cx="443.164" cy="443" r="443" fill="#8FC7EF" fill-opacity="0.31"/>
</g>
<path d="M343.998 368.062C376.118 404.19 460.433 452.745 540.738 357.938" stroke="#74199F" stroke-width="27" stroke-linecap="round"/>
<circle cx="268.931" cy="298.001" r="30" transform="rotate(-2.94568 268.931 298.001)" fill="#74199F"/>
<circle cx="612.476" cy="280.323" r="30" transform="rotate(-2.94568 612.476 280.323)" fill="#74199F"/>
<g style="mix-blend-mode:soft-light">
<circle cx="619.928" cy="272.968" r="19" transform="rotate(20.7014 619.928 272.968)" fill="white"/>
</g>
<g style="mix-blend-mode:soft-light">
<circle cx="273.095" cy="288.358" r="19" transform="rotate(20.7014 273.095 288.358)" fill="white"/>
</g>
<circle cx="622.465" cy="264.84" r="5.5" transform="rotate(20.7014 622.465 264.84)" fill="white" fill-opacity="0.68"/>
<circle cx="275.632" cy="280.23" r="5.5" transform="rotate(20.7014 275.632 280.23)" fill="white" fill-opacity="0.68"/>
</svg>
